<mxfile host="app.diagrams.net" modified="2020-07-28T10:49:05.484Z" agent="5.0 (Windows NT 10.0; Win64; x64) AppleWebKit/537.36 (KHTML, like Gecko) Chrome/84.0.4147.105 Safari/537.36" etag="qSa9lZtitFpUM4hpBkCx" version="13.5.4" type="github">
  <diagram name="Page-1" id="0783ab3e-0a74-02c8-0abd-f7b4e66b4bec">
    <mxGraphModel dx="813" dy="435" grid="1" gridSize="10" guides="1" tooltips="1" connect="1" arrows="1" fold="1" page="1" pageScale="1" pageWidth="1600" pageHeight="1200" math="0" shadow="0">
      <root>
        <mxCell id="0" />
        <mxCell id="1" parent="0" />
        <mxCell id="EdeA5Pz4NkCI4e-MdcIT-1" value="Command Send Flow" style="text;html=1;strokeColor=none;fillColor=none;align=center;verticalAlign=middle;whiteSpace=wrap;rounded=0;" vertex="1" parent="1">
          <mxGeometry x="10" y="10" width="130" height="20" as="geometry" />
        </mxCell>
        <mxCell id="EdeA5Pz4NkCI4e-MdcIT-7" value="" style="group" vertex="1" connectable="0" parent="1">
          <mxGeometry x="10" y="50" width="120" height="66" as="geometry" />
        </mxCell>
        <mxCell id="EdeA5Pz4NkCI4e-MdcIT-2" value="scsi_execute_req()" style="swimlane;fontStyle=0;childLayout=stackLayout;horizontal=1;startSize=20;fillColor=#dae8fc;horizontalStack=0;resizeParent=1;resizeParentMax=0;resizeLast=0;collapsible=1;marginBottom=0;strokeColor=none;fontSize=10;swimlaneLine=0;sketch=0;glass=0;shadow=1;" vertex="1" parent="EdeA5Pz4NkCI4e-MdcIT-7">
          <mxGeometry y="20" width="120" height="46" as="geometry">
            <mxRectangle x="50" y="70" width="120" height="20" as="alternateBounds" />
          </mxGeometry>
        </mxCell>
        <mxCell id="EdeA5Pz4NkCI4e-MdcIT-3" value="+ field: type" style="text;strokeColor=none;fillColor=none;align=left;verticalAlign=top;spacingLeft=4;spacingRight=4;overflow=hidden;rotatable=0;points=[[0,0.5],[1,0.5]];portConstraint=eastwest;fontSize=9;" vertex="1" parent="EdeA5Pz4NkCI4e-MdcIT-2">
          <mxGeometry y="20" width="120" height="26" as="geometry" />
        </mxCell>
        <mxCell id="EdeA5Pz4NkCI4e-MdcIT-6" value="scsi_device.h" style="text;strokeColor=none;fillColor=none;align=left;verticalAlign=top;spacingLeft=4;spacingRight=4;overflow=hidden;rotatable=0;points=[[0,0.5],[1,0.5]];portConstraint=eastwest;shadow=1;glass=0;sketch=0;fontSize=8;" vertex="1" parent="EdeA5Pz4NkCI4e-MdcIT-7">
          <mxGeometry width="100" height="20" as="geometry" />
        </mxCell>
        <mxCell id="EdeA5Pz4NkCI4e-MdcIT-8" value="" style="group" vertex="1" connectable="0" parent="1">
          <mxGeometry x="160" y="50" width="120" height="50" as="geometry" />
        </mxCell>
        <mxCell id="EdeA5Pz4NkCI4e-MdcIT-9" value="scsi_execute_req()" style="swimlane;fontStyle=0;childLayout=stackLayout;horizontal=1;startSize=25;fillColor=#dae8fc;horizontalStack=0;resizeParent=1;resizeParentMax=0;resizeLast=0;collapsible=1;marginBottom=0;strokeColor=none;fontSize=10;swimlaneLine=0;sketch=0;glass=0;shadow=1;" vertex="1" collapsed="1" parent="EdeA5Pz4NkCI4e-MdcIT-8">
          <mxGeometry y="15.15" width="120" height="20" as="geometry">
            <mxRectangle y="15.15" width="120" height="24.85" as="alternateBounds" />
          </mxGeometry>
        </mxCell>
        <mxCell id="EdeA5Pz4NkCI4e-MdcIT-12" value="" style="group" vertex="1" connectable="0" parent="1">
          <mxGeometry x="160" y="110" width="120" height="66" as="geometry" />
        </mxCell>
        <mxCell id="EdeA5Pz4NkCI4e-MdcIT-13" value="__scsi_execute()" style="swimlane;fontStyle=0;childLayout=stackLayout;horizontal=1;startSize=20;fillColor=#dae8fc;horizontalStack=0;resizeParent=1;resizeParentMax=0;resizeLast=0;collapsible=1;marginBottom=0;strokeColor=none;fontSize=10;swimlaneLine=0;sketch=0;glass=0;shadow=1;" vertex="1" collapsed="1" parent="EdeA5Pz4NkCI4e-MdcIT-12">
          <mxGeometry y="20" width="120" height="20" as="geometry">
            <mxRectangle y="20" width="120" height="46" as="alternateBounds" />
          </mxGeometry>
        </mxCell>
        <mxCell id="EdeA5Pz4NkCI4e-MdcIT-14" value="request and wait result" style="text;strokeColor=none;fillColor=none;align=left;verticalAlign=top;spacingLeft=4;spacingRight=4;overflow=hidden;rotatable=0;points=[[0,0.5],[1,0.5]];portConstraint=eastwest;fontSize=9;" vertex="1" parent="EdeA5Pz4NkCI4e-MdcIT-13">
          <mxGeometry y="20" width="120" height="26" as="geometry" />
        </mxCell>
        <mxCell id="EdeA5Pz4NkCI4e-MdcIT-15" value="scsi_lib.c" style="text;strokeColor=none;fillColor=none;align=left;verticalAlign=top;spacingLeft=4;spacingRight=4;overflow=hidden;rotatable=0;points=[[0,0.5],[1,0.5]];portConstraint=eastwest;shadow=1;glass=0;sketch=0;fontSize=8;" vertex="1" parent="EdeA5Pz4NkCI4e-MdcIT-12">
          <mxGeometry x="-1" y="4" width="120" height="20" as="geometry" />
        </mxCell>
        <mxCell id="EdeA5Pz4NkCI4e-MdcIT-16" style="edgeStyle=orthogonalEdgeStyle;rounded=0;orthogonalLoop=1;jettySize=auto;html=1;fontSize=8;strokeColor=#99CCFF;exitX=0.5;exitY=1;exitDx=0;exitDy=0;entryX=0.501;entryY=-0.002;entryDx=0;entryDy=0;entryPerimeter=0;" edge="1" parent="1" source="EdeA5Pz4NkCI4e-MdcIT-9" target="EdeA5Pz4NkCI4e-MdcIT-15">
          <mxGeometry relative="1" as="geometry">
            <mxPoint x="90" y="140" as="sourcePoint" />
            <mxPoint x="220" y="140" as="targetPoint" />
          </mxGeometry>
        </mxCell>
        <mxCell id="EdeA5Pz4NkCI4e-MdcIT-11" value="scsi_device.h" style="text;strokeColor=none;fillColor=none;align=left;verticalAlign=top;spacingLeft=4;spacingRight=4;overflow=hidden;rotatable=0;points=[[0,0.5],[1,0.5]];portConstraint=eastwest;shadow=1;glass=0;sketch=0;fontSize=8;" vertex="1" parent="1">
          <mxGeometry x="160" y="50" width="100" height="15.151515151515152" as="geometry" />
        </mxCell>
      </root>
    </mxGraphModel>
  </diagram>
</mxfile>
